<svg width="248" height="100" viewBox="0 0 248 100" fill="none" xmlns="http://www.w3.org/2000/svg">
<path d="M248 0H0V99.8133H248V0Z" fill="#EB1D25"/>
<path d="M209.871 23.2604V7.98287H167.359L160.367 59.022L153.449 7.98312H138.119L139.836 21.602C138.065 18.1132 131.789 7.98312 117.976 7.98312C117.885 7.97717 102.624 7.98312 102.624 7.98312L102.565 82.3767L91.3914 7.98312L71.3135 7.97147L59.7538 85.0533L59.7597 7.98263H40.5439L33.6165 51.2797L26.869 7.98312H7.64697V91.7838H22.7839V51.392L29.6694 91.7828H37.7167L44.5055 51.392V91.7828H73.6869L75.4576 78.8881H87.2064L88.9711 91.7828L117.62 91.8004H117.644V91.7828H117.662H117.679V64.5809L121.192 64.0693L128.463 91.8004H128.481H143.264H143.281L143.275 91.7828H143.301H143.319L133.778 59.2807C138.613 55.704 144.073 46.621 142.62 37.9318V37.9261C142.637 38.0437 151.626 91.8364 151.626 91.8364L169.25 91.7828L181.293 15.8244V91.7831H209.871V76.7114H196.306V57.4924H209.871V42.1912H196.306V23.2604H209.871ZM77.2407 65.5992L81.3967 29.7729L85.7119 65.5992H77.2407ZM121.241 49.0566C120.076 49.6216 118.861 49.904 117.679 49.904V22.9487C117.699 22.9487 117.723 22.9432 117.752 22.9432C118.938 22.9373 127.776 23.3018 127.776 36.2792C127.776 43.0677 124.77 47.3449 121.241 49.0566ZM240.37 76.6997V91.7712H212.491V7.97147H227.502V76.6997H240.37Z" fill="white"/>
</svg>
