<svg width="82" height="83" viewBox="0 0 82 83" fill="none" xmlns="http://www.w3.org/2000/svg">
<path d="M40.9999 0C18.3563 0 0 18.5801 0 41.5C0 64.4199 18.3563 83 40.9999 83C63.6437 83 82 64.4199 82 41.5C82 18.5802 63.6437 0 40.9999 0ZM3.01613 41.5C3.01613 37.0417 3.75656 32.6995 5.22104 28.5614L9.16481 31.334V62.4876C7.93883 60.5863 6.88219 58.5744 5.99983 56.4639C4.02075 51.7259 3.01613 46.6914 3.01613 41.5ZM67.8587 68.6863C64.3696 72.2178 60.3071 74.9905 55.7844 76.9269C51.1035 78.9311 46.1296 79.947 41 79.947C35.8713 79.947 30.8973 78.9311 26.2166 76.9269C21.6931 74.9905 17.6313 72.2178 14.1415 68.6863C13.0412 67.5716 12.0153 66.4 11.0664 65.1737H32.0576L40.324 59.1162V26.146L32.0576 19.9154H9.55816C10.8996 17.9183 12.4308 16.0465 14.1415 14.3141C17.6313 10.7817 21.6931 8.00908 26.2166 6.07317C30.8973 4.06894 35.8713 3.05309 41 3.05309C46.1296 3.05309 51.1036 4.06894 55.7844 6.07317C60.307 8.00908 64.3696 10.7817 67.8587 14.3141C69.5702 16.0464 71.1004 17.9183 72.4419 19.9154H66.4403L65.092 22.9287L61.0849 19.9154H51.762L43.5553 26.146V59.1162L51.7235 65.1737H70.9347C69.9858 66.4 68.9597 67.5716 67.8587 68.6863ZM17.5457 30.2748H25.0529C27.1534 30.2748 28.8556 31.9976 28.8556 34.1237V51.1619C28.8556 53.2872 27.1534 55.0107 25.0529 55.0107H20.5491V32.4779L17.5457 30.2748ZM73.8371 60.8425V49.0944H63.2128V55.0107H58.6237C56.6162 55.0107 54.9893 53.3641 54.9893 51.3323V32.4822L51.9841 30.2748H63.2128V36.7327H72.9514L74.8886 24.1126C75.2853 24.9043 75.6566 25.7126 76 26.5354C77.9801 31.2733 78.984 36.3078 78.984 41.5C78.984 46.6913 77.9801 51.7258 76 56.4638C75.3683 57.9756 74.6467 59.4364 73.8371 60.8425Z" fill="white"/>
</svg>
