<svg width="146" height="43" viewBox="0 0 146 43" fill="none" xmlns="http://www.w3.org/2000/svg">
<path d="M21.3395 0C9.55404 0 0 9.55403 0 21.3396C0 33.1252 9.55404 42.6792 21.3395 42.6792C33.1251 42.6792 42.6792 33.1251 42.6792 21.3396C42.6792 9.55408 33.1251 0 21.3395 0ZM1.56983 21.3396C1.56983 19.0471 1.95521 16.8143 2.71743 14.6864L4.77008 16.1122V32.1316C4.13198 31.1539 3.58203 30.1194 3.12277 29.0341C2.09271 26.5978 1.56983 24.009 1.56983 21.3396ZM35.3189 35.319C33.5029 37.1349 31.3885 38.5606 29.0345 39.5563C26.5982 40.5869 24.0094 41.1093 21.3396 41.1093C18.6702 41.1093 16.0814 40.5869 13.6452 39.5563C11.2908 38.5606 9.17668 37.1349 7.36034 35.319C6.78763 34.7458 6.2537 34.1433 5.75979 33.5128H16.6852L20.9877 30.398V13.4444L16.6852 10.2406H4.97481C5.67298 9.2137 6.46996 8.2512 7.36034 7.36038C9.17668 5.54401 11.2908 4.11832 13.6452 3.12287C16.0814 2.09228 18.6702 1.56992 21.3396 1.56992C24.0094 1.56992 26.5983 2.09228 29.0345 3.12287C31.3884 4.11832 33.5029 5.54401 35.3189 7.36038C36.2097 8.25115 37.0062 9.2137 37.7044 10.2406H34.5807L33.8789 11.7901L31.7933 10.2406H26.941L22.6695 13.4444V30.398L26.9209 33.5128H36.9199C36.426 34.1433 35.8919 34.7458 35.3189 35.319ZM9.13215 15.5675H13.0395C14.1328 15.5675 15.0187 16.4534 15.0187 17.5466V26.3078C15.0187 27.4007 14.1328 28.2869 13.0395 28.2869H10.6953V16.7003L9.13215 15.5675ZM38.4305 31.2856V25.2447H32.9008V28.2869H30.5123C29.4675 28.2869 28.6207 27.4402 28.6207 26.3954V16.7026L27.0566 15.5675H32.9008V18.8882H37.9696L38.9778 12.3989C39.1843 12.806 39.3775 13.2216 39.5563 13.6447C40.5869 16.0809 41.1094 18.6697 41.1094 21.3396C41.1094 24.009 40.5869 26.5977 39.5563 29.0341C39.2275 29.8115 38.8519 30.5626 38.4305 31.2856Z" fill="white"/>
<path fill-rule="evenodd" clip-rule="evenodd" d="M143.87 5.23344H59.2784V37.2752H143.87V5.23344ZM145.546 3.55659V38.9521H57.6016V3.55659H145.546Z" fill="white"/>
<path d="M132.024 11.8051V6.38746H116.949L114.47 24.4868L112.016 6.38754H106.58L107.189 11.217C106.561 9.97983 104.335 6.38754 99.4369 6.38754C99.4046 6.38543 93.993 6.38754 93.993 6.38754L93.9722 32.7687L90.0097 6.38754L82.8897 6.38341L78.7904 33.7179L78.7925 6.38737H71.9783L69.5217 21.7412L67.1289 6.38754H60.3125V36.1047H65.6803V21.7811L68.122 36.1043H70.9757L73.3831 21.7811V36.1043H83.7314L84.3593 31.5316H88.5256L89.1514 36.1043L99.3109 36.1106H99.3191V36.1043H99.3255H99.3318V26.4581L100.577 26.2766L103.156 36.1106H103.162H108.404H108.411L108.409 36.1043H108.418H108.424L105.04 24.5785C106.755 23.3102 108.691 20.0892 108.176 17.0079V17.0058C108.182 17.0475 111.37 36.1233 111.37 36.1233L117.62 36.1043L121.89 9.16819V36.1044H132.025V30.7597H127.214V23.9443H132.025V18.5183H127.214V11.8051H132.024ZM84.9916 26.8192L86.4654 14.1146L87.9956 26.8192H84.9916ZM100.595 20.9529C100.182 21.1532 99.7509 21.2534 99.3316 21.2534V11.6946C99.3389 11.6946 99.3473 11.6926 99.3577 11.6926C99.7781 11.6905 102.912 11.8198 102.912 16.4218C102.912 18.8291 101.846 20.3459 100.595 20.9529ZM142.84 30.7556V36.1002H132.954V6.38341H138.277V30.7556H142.84Z" fill="white"/>
</svg>
